<?xml version="1.0" encoding="UTF-8"?>
<svg id="Layer_2" data-name="Layer 2" xmlns="http://www.w3.org/2000/svg" viewBox="0 0 286.57 85.88">
  <defs>
    <style>
      .cls-1 {
        fill: #192e56;
      }
    </style>
  </defs>
  <g id="Layer_1-2" data-name="Layer 1">
    <g>
      <path class="cls-1" d="M279.06,70.38h-54.16c-4.15,0-7.51-3.37-7.51-7.51,0-19.07,15.52-34.59,34.59-34.59s34.59,15.52,34.59,34.59c0,4.15-3.36,7.51-7.51,7.51ZM233.9,55.36h36.14c-2.95-7.07-9.94-12.06-18.07-12.06s-15.12,4.98-18.07,12.06Z"/>
      <path class="cls-1" d="M107.05,70.38c-19.07,0-34.59-15.52-34.59-34.59,0-4.15,3.36-7.51,7.51-7.51h54.16c4.15,0,7.51,3.36,7.51,7.51,0,19.07-15.52,34.59-34.59,34.59ZM88.98,43.3c2.95,7.07,9.94,12.06,18.07,12.06s15.12-4.98,18.07-12.06h-36.14Z"/>
      <path class="cls-1" d="M61.67,70.38H7.51c-4.15,0-7.51-3.36-7.51-7.51C0,43.79,15.52,28.27,34.59,28.27s34.59,15.52,34.59,34.59c0,4.15-3.36,7.51-7.51,7.51ZM16.52,55.36h36.14c-2.95-7.07-9.94-12.06-18.07-12.06s-15.12,4.98-18.07,12.06Z"/>
      <path class="cls-1" d="M7.51,85.88c-4.15,0-7.51-3.36-7.51-7.51v-15.5c0-4.15,3.36-7.51,7.51-7.51s7.51,3.36,7.51,7.51v15.5c0,4.15-3.36,7.51-7.51,7.51Z"/>
      <path class="cls-1" d="M206.6,70.38h-54.16c-4.15,0-7.51-3.36-7.51-7.51,0-19.07,15.52-34.59,34.59-34.59s34.59,15.52,34.59,34.59c0,4.15-3.36,7.51-7.51,7.51ZM161.44,55.36h36.14c-2.95-7.07-9.94-12.06-18.07-12.06s-15.12,4.98-18.07,12.06Z"/>
      <path class="cls-1" d="M152.43,70.38c-4.15,0-7.51-3.36-7.51-7.51V7.51c0-4.15,3.36-7.51,7.51-7.51s7.51,3.36,7.51,7.51v55.36c0,4.15-3.36,7.51-7.51,7.51Z"/>
      <path class="cls-1" d="M271.48,70.38H7.51c-4.15,0-7.51-3.36-7.51-7.51s3.36-7.51,7.51-7.51h263.97c4.15,0,7.51,3.36,7.51,7.51s-3.36,7.51-7.51,7.51Z"/>
    </g>
  </g>
</svg>