<?xml version="1.0" encoding="UTF-8"?>
<svg id="Layer_2" data-name="Layer 2" xmlns="http://www.w3.org/2000/svg" viewBox="0 0 286.57 268.84">
  <defs>
    <style>
      .cls-1 {
        fill: #192e56;
      }
    </style>
  </defs>
  <g id="Layer_1-2" data-name="Layer 1">
    <g>
      <path class="cls-1" d="M171.38,135.93h-56.18c-3.77,0-6.82-3.05-6.82-6.82,0-19.25,15.66-34.91,34.91-34.91s34.91,15.66,34.91,34.91c0,3.77-3.05,6.82-6.82,6.82ZM123.13,122.29h40.3c-2.85-8.39-10.81-14.45-20.15-14.45s-17.3,6.06-20.15,14.45Z"/>
      <path class="cls-1" d="M143.28,41.73c-19.25,0-34.91-15.66-34.91-34.91,0-3.77,3.05-6.82,6.82-6.82h56.18c3.77,0,6.82,3.05,6.82,6.82,0,19.25-15.66,34.91-34.91,34.91ZM123.13,13.64c2.85,8.39,10.81,14.45,20.15,14.45s17.3-6.06,20.15-14.45h-40.3Z"/>
      <path class="cls-1" d="M82.14,102.88c-3.77,0-6.82-3.05-6.82-6.82v-56.18c0-3.77,3.05-6.82,6.82-6.82,19.25,0,34.91,15.66,34.91,34.91s-15.66,34.91-34.91,34.91ZM88.96,47.82v40.3c8.39-2.85,14.45-10.81,14.45-20.15s-6.06-17.3-14.45-20.15Z"/>
      <path class="cls-1" d="M169.52,67.97c0-19.25,15.66-34.91,34.91-34.91,3.77,0,6.82,3.05,6.82,6.82v56.18c0,3.77-3.05,6.82-6.82,6.82-19.25,0-34.91-15.66-34.91-34.91ZM183.16,67.97c0,9.35,6.06,17.3,14.45,20.15v-40.3c-8.39,2.85-14.45,10.81-14.45,20.15Z"/>
      <path class="cls-1" d="M143.28,87.09c-10.54,0-19.12-8.58-19.12-19.12s8.58-19.12,19.12-19.12,19.12,8.58,19.12,19.12-8.58,19.12-19.12,19.12ZM143.28,62.49c-3.02,0-5.48,2.46-5.48,5.48s2.46,5.48,5.48,5.48,5.48-2.46,5.48-5.48-2.46-5.48-5.48-5.48Z"/>
    </g>
    <g>
      <path class="cls-1" d="M279.06,253.34h-54.16c-4.15,0-7.51-3.37-7.51-7.51,0-19.07,15.52-34.59,34.59-34.59s34.59,15.52,34.59,34.59c0,4.15-3.36,7.51-7.51,7.51ZM233.9,238.31h36.14c-2.95-7.07-9.94-12.06-18.07-12.06s-15.12,4.98-18.07,12.06Z"/>
      <path class="cls-1" d="M107.05,253.34c-19.07,0-34.59-15.52-34.59-34.59,0-4.15,3.36-7.51,7.51-7.51h54.16c4.15,0,7.51,3.36,7.51,7.51,0,19.07-15.52,34.59-34.59,34.59ZM88.98,226.25c2.95,7.07,9.94,12.06,18.07,12.06s15.12-4.98,18.07-12.06h-36.14Z"/>
      <path class="cls-1" d="M61.67,253.34H7.51c-4.15,0-7.51-3.36-7.51-7.51,0-19.07,15.52-34.59,34.59-34.59s34.59,15.52,34.59,34.59c0,4.15-3.36,7.51-7.51,7.51ZM16.52,238.31h36.14c-2.95-7.07-9.94-12.06-18.07-12.06s-15.12,4.98-18.07,12.06Z"/>
      <path class="cls-1" d="M7.51,268.84c-4.15,0-7.51-3.36-7.51-7.51v-15.5c0-4.15,3.36-7.51,7.51-7.51s7.51,3.36,7.51,7.51v15.5c0,4.15-3.36,7.51-7.51,7.51Z"/>
      <path class="cls-1" d="M206.6,253.34h-54.16c-4.15,0-7.51-3.36-7.51-7.51,0-19.07,15.52-34.59,34.59-34.59s34.59,15.52,34.59,34.59c0,4.15-3.36,7.51-7.51,7.51ZM161.44,238.31h36.14c-2.95-7.07-9.94-12.06-18.07-12.06s-15.12,4.98-18.07,12.06Z"/>
      <path class="cls-1" d="M152.43,253.34c-4.15,0-7.51-3.36-7.51-7.51v-55.36c0-4.15,3.36-7.51,7.51-7.51s7.51,3.36,7.51,7.51v55.36c0,4.15-3.36,7.51-7.51,7.51Z"/>
      <path class="cls-1" d="M271.48,253.34H7.51c-4.15,0-7.51-3.36-7.51-7.51s3.36-7.51,7.51-7.51h263.97c4.15,0,7.51,3.36,7.51,7.51s-3.36,7.51-7.51,7.51Z"/>
    </g>
  </g>
</svg>