<?xml version="1.0" encoding="UTF-8"?>
<svg id="Layer_2" data-name="Layer 2" xmlns="http://www.w3.org/2000/svg" viewBox="0 0 135.93 135.93">
  <defs>
    <style>
      .cls-1 {
        fill: #f1673b;
      }
    </style>
  </defs>
  <g id="Layer_1-2" data-name="Layer 1">
    <g>
      <path class="cls-1" d="M96.06,135.93h-56.18c-3.77,0-6.82-3.05-6.82-6.82,0-19.25,15.66-34.91,34.91-34.91s34.91,15.66,34.91,34.91c0,3.77-3.05,6.82-6.82,6.82ZM47.82,122.29h40.3c-2.85-8.39-10.81-14.45-20.15-14.45s-17.3,6.06-20.15,14.45Z"/>
      <path class="cls-1" d="M67.97,41.73c-19.25,0-34.91-15.66-34.91-34.91,0-3.77,3.05-6.82,6.82-6.82h56.18c3.77,0,6.82,3.05,6.82,6.82,0,19.25-15.66,34.91-34.91,34.91ZM47.82,13.64c2.85,8.39,10.81,14.45,20.15,14.45s17.3-6.06,20.15-14.45h-40.3Z"/>
      <path class="cls-1" d="M6.82,102.88c-3.77,0-6.82-3.05-6.82-6.82v-56.18c0-3.77,3.05-6.82,6.82-6.82,19.25,0,34.91,15.66,34.91,34.91s-15.66,34.91-34.91,34.91ZM13.64,47.82v40.3c8.39-2.85,14.45-10.81,14.45-20.15s-6.06-17.3-14.45-20.15Z"/>
      <path class="cls-1" d="M94.2,67.97c0-19.25,15.66-34.91,34.91-34.91,3.77,0,6.82,3.05,6.82,6.82v56.18c0,3.77-3.05,6.82-6.82,6.82-19.25,0-34.91-15.66-34.91-34.91ZM107.84,67.97c0,9.35,6.06,17.3,14.45,20.15v-40.3c-8.39,2.85-14.45,10.81-14.45,20.15Z"/>
      <path class="cls-1" d="M67.97,87.09c-10.54,0-19.12-8.58-19.12-19.12s8.58-19.12,19.12-19.12,19.12,8.58,19.12,19.12-8.58,19.12-19.12,19.12ZM67.97,62.49c-3.02,0-5.48,2.46-5.48,5.48s2.46,5.48,5.48,5.48,5.48-2.46,5.48-5.48-2.46-5.48-5.48-5.48Z"/>
    </g>
  </g>
</svg>